<svg width="25" height="30" viewBox="0 0 25 30" fill="none" xmlns="http://www.w3.org/2000/svg">
<g id="Group">
<path id="Vector" d="M15.5327 2.41365C15.4087 2.81947 15.2088 3.13678 14.9328 3.36572C14.1747 3.99391 13.3648 4.1726 12.4426 4.20331C11.4588 4.14747 10.5463 3.90457 9.80034 3.11723C9.75206 3.066 9.70377 2.98783 9.65549 2.88271C9.58633 2.73013 9.51583 2.66954 9.44425 2.70123C9.38716 2.18374 9.42048 1.78086 9.54444 1.49231C9.7424 1.03066 10.1488 0.661693 10.7636 0.385288C11.9674 -0.155378 13.1829 -0.127037 14.4101 0.470445C14.7062 0.61465 14.9783 0.83717 15.2261 1.13773C15.5101 1.48212 15.6123 1.90733 15.5327 2.41365Z" fill="#79C8FF"/>
<path id="Vector_2" d="M15.5327 2.41367L15.5846 3.78313L15.6003 4.92923C15.5818 5.07539 15.5085 5.423 15.3806 5.97204C15.3187 6.23909 15.346 6.50767 15.4627 6.77752C15.4522 6.81102 15.4189 6.81898 15.3625 6.80125C15.3665 6.77794 15.3601 6.76217 15.3432 6.75379C15.3166 6.74164 15.2937 6.74778 15.2744 6.77193C14.9452 7.19171 14.5944 7.46756 14.2218 7.59976C13.8911 7.718 13.4964 7.85243 13.0377 8.00319L12.4269 7.99901C12.4905 6.74443 12.4957 5.47925 12.4426 4.20332C13.3648 4.17261 14.1747 3.99392 14.9328 3.36573C15.2088 3.13679 15.4087 2.81948 15.5327 2.41367Z" fill="#2D52C7"/>
<path id="Vector_3" d="M12.4426 4.20333C12.4957 5.47926 12.4905 6.74444 12.4269 7.99901L11.7775 7.97807C11.1483 7.73615 10.756 7.57561 10.6006 7.49646C10.3649 7.3764 10.0466 7.13909 9.64584 6.78451C9.63135 6.69237 9.5955 6.63695 9.53841 6.61838C9.66479 6.13537 9.60878 5.65697 9.37063 5.18331C9.47926 4.69569 9.46961 4.23362 9.34166 3.79709C9.406 3.75982 9.43979 3.66727 9.44305 3.51929C9.44788 3.26425 9.44824 2.99161 9.44426 2.70125C9.51584 2.66956 9.58633 2.73014 9.65549 2.88272C9.70378 2.98784 9.75206 3.06602 9.80034 3.11725C10.5463 3.90459 11.4588 4.14749 12.4426 4.20333Z" fill="#3E7FFF"/>
<path id="Vector_4" d="M9.34189 3.79709C9.46987 4.23372 9.47953 4.69591 9.37087 5.18365L8.36996 4.40589L9.34189 3.79709Z" fill="#58ABFF"/>
<path id="Vector_5" d="M15.5846 3.78314L16.536 4.33469C16.5505 4.3682 16.5508 4.40549 16.5372 4.4464C16.5275 4.47433 16.5074 4.49904 16.4768 4.5204C16.3062 4.64328 16.1315 4.75778 15.9528 4.8639C15.9166 4.88526 15.8783 4.8956 15.8381 4.89462C15.7246 4.89085 15.6453 4.90258 15.6003 4.92953L15.5846 3.78314Z" fill="#58ABFF"/>
<path id="Vector_6" d="M21.5547 6.37827C21.5056 6.30387 21.4775 6.32425 21.4702 6.43969C21.4687 6.47781 21.463 6.51047 21.4533 6.53741C20.9959 7.80078 19.4846 8.25727 18.3886 8.23074C17.2781 8.23493 16.1555 7.84126 15.4627 6.77752C15.346 6.50768 15.3187 6.23909 15.3806 5.97204C15.5086 5.423 15.5818 5.0754 15.6003 4.92924C15.6453 4.90229 15.7246 4.89057 15.8381 4.89434C15.8783 4.89531 15.9165 4.88498 15.9527 4.86363C16.1314 4.75753 16.3061 4.64306 16.4766 4.52021C16.5072 4.49886 16.5273 4.47415 16.537 4.44623C16.5506 4.40532 16.5502 4.36805 16.5358 4.33455C16.6653 4.36428 16.7482 4.37266 16.7844 4.35967C18.0172 3.89621 19.2034 3.94465 20.3428 4.50486C21.0598 4.85762 21.4638 5.48205 21.5547 6.37827Z" fill="#79C8FF"/>
<path id="Vector_7" d="M8.36996 4.40574L9.37062 5.18331C9.60877 5.65697 9.66478 6.13537 9.5384 6.61838C9.41685 6.96361 9.22215 7.2382 8.95418 7.44201C8.22596 7.99482 7.42036 8.25545 6.53764 8.22377C6.11915 8.22935 5.71322 8.17588 5.31971 8.06322C4.7536 7.90129 3.92314 7.44759 3.65517 6.80265C3.62536 6.73103 3.57273 6.69795 3.49705 6.70353C3.26771 5.09396 4.66428 4.25777 5.83272 4.10421C6.7082 3.98876 7.55399 4.08927 8.36996 4.40574Z" fill="#79C8FF"/>
<path id="Vector_8" d="M21.5547 6.37826L21.5571 7.72678C21.5201 8.22752 21.5049 8.87889 21.5113 9.68116C21.5169 10.3959 21.2437 10.9422 20.6917 11.3201C19.9723 11.8133 19.2006 12.0288 18.3765 11.9664L18.3886 8.23073C19.4846 8.25726 20.9959 7.80077 21.4533 6.5374C21.463 6.51046 21.4687 6.4778 21.4702 6.43968C21.4775 6.32424 21.5056 6.30385 21.5547 6.37826Z" fill="#2D52C7"/>
<path id="Vector_9" d="M9.5384 6.61838C9.5955 6.63694 9.63135 6.69237 9.64583 6.7845L9.66635 9.17722C9.47648 9.67517 9.41444 10.1772 9.48047 10.6835C9.41854 10.6919 9.37943 10.7202 9.36338 10.7686C9.03023 11.2228 8.59086 11.5448 8.04527 11.7347C7.4876 11.9283 6.97702 12.0106 6.5135 11.9818L6.53764 8.22376C7.42037 8.25545 8.22596 7.99482 8.95419 7.44201C9.22215 7.23819 9.41685 6.9636 9.5384 6.61838Z" fill="#2D52C7"/>
<path id="Vector_10" d="M3.49706 6.70352C3.57274 6.69793 3.62537 6.73102 3.65518 6.80263C3.92315 7.44758 4.75361 7.90127 5.31972 8.06321C5.71322 8.17586 6.11916 8.22933 6.53765 8.22375L6.51351 11.9817C5.83272 11.9827 5.20952 11.832 4.64377 11.5294C4.11869 11.2502 3.5224 10.6932 3.51516 9.97571C3.50394 8.92495 3.48619 8.18982 3.46205 7.77005L3.49706 6.70352Z" fill="#3E7FFF"/>
<path id="Vector_11" d="M15.3631 6.80125L15.3184 9.20014C14.6511 8.66214 13.8909 8.2632 13.0377 8.00349C13.4965 7.85268 13.8913 7.71822 14.2221 7.59995C14.5948 7.46772 14.9457 7.1918 15.2749 6.77192C15.2942 6.74777 15.3172 6.74163 15.3437 6.75377C15.3607 6.76215 15.3671 6.77793 15.3631 6.80125Z" fill="#58ABFF"/>
<path id="Vector_12" d="M11.778 7.97835C11.3901 8.18221 11.0074 8.37169 10.6298 8.54665C10.2797 8.70863 9.99719 8.95857 9.66637 9.17779L9.64584 6.78448C10.0467 7.13915 10.3651 7.37653 10.6009 7.49661C10.7563 7.57578 11.1486 7.73636 11.778 7.97835Z" fill="#58ABFF"/>
<path id="Vector_13" d="M15.3625 6.80123C15.4189 6.81896 15.4522 6.811 15.4627 6.7775C16.1555 7.84124 17.2781 8.23491 18.3886 8.23072L18.3765 11.9664C17.5231 11.9901 16.2618 11.6704 15.6908 10.8356C15.6739 10.8115 15.6574 10.7979 15.6413 10.7951C15.6196 10.7914 15.5975 10.797 15.5749 10.8119C15.542 10.7291 15.5058 10.6719 15.4663 10.6402C15.5604 10.3564 15.5834 10.1288 15.5351 9.95755C15.4554 9.68017 15.383 9.4275 15.3178 9.19953L15.3625 6.80123Z" fill="#3E7FFF"/>
<path id="Vector_14" d="M3.46205 7.77005C3.48619 8.18982 3.50394 8.92495 3.51516 9.97571C3.52241 10.6932 4.11869 11.2502 4.64377 11.5294C5.20952 11.832 5.83272 11.9827 6.51351 11.9817C6.97702 12.0106 7.48761 11.9283 8.04527 11.7347C8.59086 11.5448 9.03023 11.2227 9.36338 10.7686C9.39875 10.7593 9.41734 10.7742 9.41891 10.8133C9.4591 11.7496 9.47045 12.798 9.45271 13.9585C9.43098 15.4996 11.5216 16.0287 12.4571 16.0064C13.4083 16.0622 14.8772 15.6965 15.3854 14.6132C15.4956 14.3777 15.5508 14.0209 15.5508 13.5424C15.5508 12.6779 15.5496 11.8146 15.5472 10.9529C15.5472 10.9194 15.5565 10.8723 15.5749 10.8119C15.5975 10.797 15.6196 10.7914 15.6413 10.7952C15.6574 10.7979 15.6739 10.8115 15.6908 10.8356C16.2618 11.6704 17.5231 11.9901 18.3765 11.9664C19.2006 12.0288 19.9723 11.8132 20.6917 11.32C21.2437 10.9421 21.5169 10.3959 21.5113 9.68116C21.5049 8.87888 21.5201 8.22752 21.5571 7.72678C22.3626 8.23673 23.152 8.75283 23.9254 9.27492C23.9335 9.27953 24.0199 9.33258 24.1849 9.43406C24.4931 9.62392 24.7084 9.88176 24.8307 10.2074C24.5253 10.3415 24.2561 10.4671 23.9676 10.6611C20.2451 13.1478 16.5225 15.6294 12.7999 18.1059C12.4128 18.0826 12.1155 18.01 11.9079 17.8882C11.3993 17.5884 10.4771 16.9915 9.14128 16.0971C6.36178 14.2367 3.5824 12.3772 0.802893 10.5187C0.61616 10.3941 0.356642 10.3313 0.0243378 10.3303C0.257663 9.93383 0.444757 9.68911 0.585621 9.596C1.46038 9.01806 2.3326 8.43454 3.20253 7.84543C3.23476 7.82407 3.32119 7.79895 3.46205 7.77005Z" fill="#58ABFF"/>
<path id="Vector_15" d="M13.0377 8.00318C13.8907 8.26284 14.6507 8.66167 15.3178 9.19955C15.383 9.42751 15.4554 9.68018 15.5351 9.95756C15.5834 10.1289 15.5604 10.3564 15.4663 10.6402C15.0728 11.8952 13.4517 12.2735 12.4643 12.2847C12.07 12.2717 11.6797 12.2153 11.2935 12.1158C10.5025 11.9129 9.8981 11.4355 9.48046 10.6835C9.41443 10.1772 9.47648 9.67516 9.66635 9.17721C9.99708 8.95804 10.2795 8.70816 10.6296 8.54623C11.007 8.37131 11.3897 8.18187 11.7775 7.97806L12.4269 7.999L13.0377 8.00318Z" fill="#79C8FF"/>
<path id="Vector_16" d="M24.8307 10.2075C24.9417 10.4159 24.9973 10.5946 24.9973 10.7435C24.9997 13.8388 25.0005 16.9351 24.9997 20.0324C24.9997 20.8379 24.8355 21.2972 24.2525 21.6839C20.9974 23.8439 17.3014 26.3153 13.1644 29.0979C12.9085 29.2701 12.6228 29.3283 12.3074 29.2724C12.3316 29.1915 12.3585 29.1137 12.3883 29.0393C12.4212 28.9583 12.4378 28.8792 12.4378 28.802C12.47 25.6201 12.4797 22.4391 12.4668 19.259C12.4652 18.925 12.5762 18.5405 12.7999 18.1059C16.5225 15.6295 20.2451 13.1478 23.9676 10.6612C24.2561 10.4671 24.5253 10.3415 24.8307 10.2075Z" fill="#2D52C7"/>
<path id="Vector_17" d="M0.0243399 10.3303C0.356644 10.3313 0.616163 10.3941 0.802895 10.5188C3.5824 12.3772 6.36178 14.2367 9.14129 16.0971C10.4771 16.9915 11.3993 17.5884 11.9079 17.8882C12.1155 18.01 12.4128 18.0826 12.7999 18.1059C12.5762 18.5405 12.4652 18.925 12.4667 19.259C12.4797 22.4391 12.47 25.6201 12.4378 28.802C12.4378 28.8792 12.4212 28.9583 12.3883 29.0393C12.3585 29.1137 12.3316 29.1915 12.3074 29.2724C12.0901 29.2305 11.9191 29.1677 11.7944 29.084C8.28995 26.7201 4.79707 24.3805 1.3159 22.0649C0.608558 21.5945 0.0038195 21.3335 0.00140538 20.2181C-0.00342288 16.9124 0.00418192 13.6164 0.0243399 10.3303Z" fill="#3E7FFF"/>
<path id="Vector_18" d="M15.4663 10.6402C15.5058 10.6719 15.542 10.7291 15.5749 10.8119C15.5565 10.8723 15.5472 10.9194 15.5472 10.9529C15.5496 11.8146 15.5508 12.6779 15.5508 13.5424C15.5508 14.0209 15.4956 14.3777 15.3854 14.6132C14.8773 15.6965 13.4083 16.0622 12.4571 16.0064L12.4643 12.2847C13.4517 12.2735 15.0728 11.8952 15.4663 10.6402Z" fill="#2D52C7"/>
<path id="Vector_19" d="M9.48047 10.6835C9.89812 11.4355 10.5025 11.9129 11.2935 12.1158C11.6797 12.2153 12.07 12.2717 12.4643 12.2847L12.4571 16.0064C11.5216 16.0287 9.43098 15.4996 9.45271 13.9585C9.47046 12.798 9.45911 11.7496 9.41891 10.8133C9.41734 10.7742 9.39876 10.7593 9.36339 10.7686C9.37944 10.7202 9.41855 10.6918 9.48047 10.6835Z" fill="#3E7FFF"/>
</g>
</svg>
